<svg width="167" height="23" viewBox="0 0 167 23" xmlns="http://www.w3.org/2000/svg">
  <path d="M25.18 20.68c.24.14.52.27.82.4.31.12.6.21.89.26.29.05.6.08.94.08s.7-.04 1.06-.13l.09.22c-.82.4-1.65.59-2.48.59-1.92 0-3.87-1.06-5.86-3.18L10.25 7.88v8.97c0 .37.13.68.39.93.26.26.58.38.94.38H12v.22H5.35v-.22h.39c.38 0 .7-.13.97-.38.26-.26.39-.57.39-.95V4.52C6.38 3.7 5.84 3.13 5.48 2.8s-.69-.6-.98-.82c-.28-.22-.56-.4-.82-.55C3.07 1.08 2.57.87 2.2.82 1.83.76 1.48.73 1.15.73S.47.8.09.93L0 .71C.8.23 1.63 0 2.48 0c1.84 0 3.8 1.1 5.86 3.29l9.81 10.42V4.59c-.02-.38-.15-.7-.42-.95-.26-.26-.58-.38-.94-.38h-.39v-.22h6.65v.22h-.42c-.37 0-.68.13-.94.38-.26.26-.4.57-.42.93v12.48l.35.35c.09.09.22.24.41.45.18.21.35.4.49.55.15.15.33.35.56.58.23.23.44.44.64.61s.43.37.7.57c.27.2.53.38.77.52Z" style="fill:#fff;stroke-width:0"/>
  <path d="M24.86 18.17c.38 0 .71-.14.98-.41.27-.27.41-.6.43-.98V4.56c-.03-.38-.14-.66-.33-.83-.35-.32-.71-.48-1.07-.48h-.29v-.22h8.4c.72 0 1.31-.05 1.78-.16s.75-.19.85-.23v3.84l-.22-.02v-.24c0-.91-.34-1.55-1.01-1.93-.32-.19-.7-.29-1.14-.31h-3.69v6.38h2.9c.54-.01.99-.2 1.34-.56.35-.36.53-.8.53-1.33v-.2h.22v5.07h-.22v-.18c0-.54-.17-.99-.52-1.34-.34-.35-.78-.53-1.31-.55h-2.94v6.16h2.87c1.07 0 1.96-.31 2.69-.92.72-.61 1.26-1.48 1.61-2.61h.22l-1.01 4.48H24.56v-.22h.29Zm13.75 0c.38 0 .71-.14.98-.41s.41-.6.43-.98V4.56c-.03-.38-.14-.66-.33-.83-.35-.32-.71-.48-1.07-.48h-.28v-.22h8.4c.72 0 1.31-.05 1.78-.16s.75-.19.86-.23v3.84l-.22-.02v-.24c0-.91-.34-1.55-1.01-1.93-.32-.19-.7-.29-1.14-.31h-3.69v6.38h2.9c.54-.01.99-.2 1.34-.56.35-.36.53-.8.53-1.33v-.2h.22v5.07h-.22v-.18c0-.54-.17-.99-.52-1.34-.34-.35-.78-.53-1.3-.55h-2.94v6.16h2.87c1.07 0 1.96-.31 2.69-.92.72-.61 1.26-1.48 1.61-2.61h.22l-1.01 4.48H38.35v-.22h.28ZM58.14 3.99h-1.01v12.79c.02.38.16.71.43.98s.6.41.98.41h.29v.22h-6.67v-.22h.28c.53 0 .93-.23 1.21-.68.12-.2.18-.43.2-.68V4.63c-.02-.38-.16-.71-.43-.98s-.6-.41-.98-.41h-.28v-.22h7.52c1.42 0 2.62.31 3.6.92.5.31.89.74 1.18 1.28.29.55.44 1.27.44 2.15s-.31 1.74-.92 2.56c-.61.82-1.51 1.29-2.68 1.4.85.28 1.59.92 2.24 1.93 1.58 2.53 2.75 4.04 3.51 4.52.38.23.86.36 1.43.37v.22h-2.15c-1.27 0-2.33-.17-3.17-.5-.84-.34-1.5-.93-1.99-1.78-.28-.48-.88-1.73-1.82-3.75-.41-.89-.91-1.38-1.49-1.47v-.22h.68c.66 0 1.24-.2 1.74-.59s.84-1.04 1.02-1.93c.06-.31.09-.55.09-.72 0-1.2-.24-2.07-.72-2.6-.48-.53-1.1-.81-1.86-.82h-.66Z" style="fill:#fff;stroke-width:0"/>
  <path d="M83.48 18.17h.2v.22h-7v-.22h.2c.32 0 .56-.1.71-.3.15-.2.23-.38.23-.56s-.04-.35-.11-.53l-1.07-2.7h-5.13l-1.14 2.7c-.07.19-.11.37-.11.54s.08.35.24.55c.16.2.4.3.72.3h.18v.22h-4.7v-.22h.2c.34 0 .67-.1 1.01-.31.34-.2.61-.51.83-.92l5.07-11.47c.69-1.45 1.05-2.41 1.1-2.87h.2l6.52 14.3c.22.42.5.74.83.95.34.21.68.32 1.03.32Zm-11.61-5h4.39l-2.13-5.4-2.26 5.4Z" style="fill:#fff;stroke-width:0"/>
  <path d="M90.37 3.25c-.53 0-.93.23-1.21.68-.13.21-.2.44-.2.7v13.1c0 1.04-.28 1.97-.83 2.79-.56.82-1.24 1.4-2.04 1.75s-1.61.53-2.41.53c-.19 0-.38 0-.57-.02v-.2c.88-.37 1.52-1 1.94-1.9s.63-1.9.63-3.02V4.63c-.02-.54-.25-.94-.7-1.21-.22-.12-.45-.18-.7-.18H84v-.22h6.67v.22h-.29Zm11.08-.24h1.36c.66 0 1.88 0 3.66.02 2.59.03 4.64.73 6.14 2.09 1.51 1.37 2.26 3.23 2.26 5.59s-.75 4.23-2.26 5.61c-1.51 1.38-3.55 2.06-6.14 2.06h-7.96v-.22h.29c.37 0 .68-.13.95-.38.27-.26.42-.57.45-.93V4.01c-1.64.12-2.85.5-3.64 1.14-.4.31-.71.62-.93.94-.23.32-.45.71-.67 1.16l-.22-.09c.35-1.46 1.09-2.52 2.21-3.17 1.12-.65 2.62-.98 4.51-1Zm8.48 12.64c.91-1.21 1.37-2.86 1.37-4.94s-.46-3.71-1.37-4.91c-.91-1.2-2.14-1.8-3.68-1.8h-2.76v13.47h2.72c1.57 0 2.8-.61 3.72-1.82Zm7.1 2.52c.38 0 .71-.14.98-.41s.41-.6.43-.98V4.56c-.03-.38-.14-.66-.33-.83-.35-.32-.71-.48-1.07-.48h-.28v-.22h8.4c.72 0 1.31-.05 1.78-.16s.75-.19.86-.23v3.84l-.22-.02v-.24c0-.91-.34-1.55-1.01-1.93-.32-.19-.7-.29-1.14-.31h-3.69v6.38h2.9c.54-.01.99-.2 1.34-.56.35-.36.53-.8.53-1.33v-.2h.22v5.07h-.22v-.18c0-.54-.17-.99-.52-1.34-.34-.35-.78-.53-1.3-.55h-2.94v6.16h2.87c1.07 0 1.96-.31 2.69-.92.72-.61 1.26-1.48 1.61-2.61h.22l-1.01 4.48h-11.36v-.22h.28Zm13.73-1.82c0-1.05.23-1.95.68-2.7h.2c-.01.12-.02.23-.02.35 0 1.01.36 1.89 1.09 2.64.72.75 1.71 1.13 2.97 1.13.98 0 1.74-.23 2.29-.7s.82-1.06.82-1.78c0-.42-.14-.8-.41-1.14-.27-.34-.72-.71-1.35-1.12l-3.82-2.52c-1.42-.95-2.13-2.12-2.13-3.51 0-.15.01-.29.04-.44.09-1.16.54-2.08 1.35-2.79s1.9-1.05 3.26-1.05c.8 0 1.8.07 2.98.22h1.38l-.29 3.22h-.22c0-.76-.28-1.37-.84-1.83-.56-.46-1.31-.69-2.25-.69-1.14 0-1.97.35-2.48 1.05-.26.34-.4.67-.4 1.01s.07.62.2.86c.2.38.65.79 1.34 1.23l4.19 2.72c1.32.86 1.98 1.99 1.98 3.38 0 1.55-.53 2.74-1.59 3.57s-2.47 1.24-4.22 1.24c-1 0-1.91-.12-2.75-.36-.84-.24-1.46-.57-1.85-.98-.1-.28-.15-.61-.15-1.01Zm27.78 1.82h.2v.22h-7v-.22h.2c.32 0 .56-.1.71-.3.15-.2.23-.38.23-.56s-.04-.35-.11-.53l-1.07-2.7h-5.13l-1.14 2.7c-.07.19-.11.37-.11.54s.08.35.24.55c.16.2.4.3.72.3h.18v.22h-4.7v-.22h.2c.34 0 .67-.1 1.01-.31.34-.2.61-.51.83-.92l5.07-11.47c.69-1.45 1.05-2.41 1.1-2.87h.2l6.52 14.3c.22.42.5.74.83.95.34.21.68.32 1.03.32Zm-11.61-5h4.39l-2.13-5.4-2.26 5.4Zm12.33 5c.38 0 .71-.14.98-.41s.41-.6.43-.98V4.61c-.02-.38-.16-.7-.43-.97-.27-.26-.6-.39-.98-.39h-.28v-.22h6.67l-.02.22h-.26c-.38 0-.71.13-.99.39s-.42.59-.42.97v12.18c0 .38.14.71.42.98s.61.41.99.41h.26l.02.22h-6.67v-.22h.28Z" style="fill:#fff;stroke-width:0"/>
</svg>
